<svg xmlns="http://www.w3.org/2000/svg" width="1100" height="620" viewBox="0 0 1100 620" role="img" aria-labelledby="title desc">
  <title id="title">Grafico de burndown da Sprint I</title>
  <desc id="desc">Linha planejada de pontos restantes: 42, 35, 28, 21, 14, 8, 3 e 0.</desc>
  <defs>
    <style>
      .bg { fill: #ffffff; }
      .grid { stroke: #d9e1e8; stroke-width: 1; }
      .axis { stroke: #263238; stroke-width: 2; }
      .planned { stroke: #1f6f8b; stroke-width: 4; fill: none; }
      .real { stroke: #a8443d; stroke-width: 0; fill: #a8443d; }
      .title { font: 700 28px Arial, Helvetica, sans-serif; fill: #1d2730; }
      .label { font: 14px Arial, Helvetica, sans-serif; fill: #45545f; }
      .tick { font: 13px Arial, Helvetica, sans-serif; fill: #45545f; }
      .legend { font: 15px Arial, Helvetica, sans-serif; fill: #1d2730; }
    </style>
  </defs>
  <rect class="bg" width="1100" height="620"/>
  <text class="title" x="70" y="54">Burndown planejado da Sprint I</text>
  <text class="label" x="70" y="82">Total estimado: 42 pontos</text>

  <line class="grid" x1="100" y1="120" x2="1000" y2="120"/>
  <line class="grid" x1="100" y1="210" x2="1000" y2="210"/>
  <line class="grid" x1="100" y1="300" x2="1000" y2="300"/>
  <line class="grid" x1="100" y1="390" x2="1000" y2="390"/>
  <line class="grid" x1="100" y1="480" x2="1000" y2="480"/>
  <line class="axis" x1="100" y1="480" x2="1000" y2="480"/>
  <line class="axis" x1="100" y1="120" x2="100" y2="480"/>

  <text class="tick" x="58" y="485">0</text>
  <text class="tick" x="52" y="395">10</text>
  <text class="tick" x="52" y="305">20</text>
  <text class="tick" x="52" y="215">30</text>
  <text class="tick" x="52" y="125">40</text>
  <text class="label" x="34" y="306" transform="rotate(-90 34 306)">Pontos restantes</text>
  <text class="label" x="520" y="575">Dias da sprint</text>

  <polyline class="planned" points="100,102 229,165 357,228 486,291 614,354 743,408 871,453 1000,480"/>
  <circle cx="100" cy="102" r="6" fill="#1f6f8b"/>
  <circle cx="229" cy="165" r="6" fill="#1f6f8b"/>
  <circle cx="357" cy="228" r="6" fill="#1f6f8b"/>
  <circle cx="486" cy="291" r="6" fill="#1f6f8b"/>
  <circle cx="614" cy="354" r="6" fill="#1f6f8b"/>
  <circle cx="743" cy="408" r="6" fill="#1f6f8b"/>
  <circle cx="871" cy="453" r="6" fill="#1f6f8b"/>
  <circle cx="1000" cy="480" r="6" fill="#1f6f8b"/>
  <circle class="real" cx="100" cy="102" r="6"/>

  <text class="tick" x="82" y="510">Qua</text>
  <text class="tick" x="211" y="510">Qui</text>
  <text class="tick" x="339" y="510">Sex</text>
  <text class="tick" x="468" y="510">Sab</text>
  <text class="tick" x="596" y="510">Dom</text>
  <text class="tick" x="725" y="510">Seg</text>
  <text class="tick" x="853" y="510">Ter</text>
  <text class="tick" x="982" y="510">Qua</text>

  <rect x="760" y="58" width="18" height="6" fill="#1f6f8b"/>
  <text class="legend" x="788" y="66">Planejado</text>
  <circle cx="905" cy="62" r="6" fill="#a8443d"/>
  <text class="legend" x="920" y="66">Real registrado</text>
</svg>
